<svg xmlns="http://www.w3.org/2000/svg" version="1.1" xmlns:xlink="http://www.w3.org/1999/xlink" xmlns:svgjs="http://svgjs.dev/svgjs" width="100%" height="100%" viewBox="0 0 1000 600"><rect width="1000" height="600" x="0" y="0" fill="#fff748"/><g><rect width="333.3333333333333" height="333.3333333333333" rx="13.333333333333334" ry="13.333333333333334" y="142.06060093938777" fill="#3c1a5b" transform="matrix(1.043071456001536,0,0,1.043071456001536,0,-22.024620917147004)" x="119.83838653564453"/><path d="M331.18201196626353 314.94425788315834L331.18201196626353 359.4993156972888Q331.18201196626353 364.0096772270366 330.69440531439886 368.36766167807673Q330.2067986625342 372.6951707133753 328.5611262124911 376.10841727642776Q326.8849783467065 379.5521392552216 323.6850596938448 381.6244675256463Q320.45466562524166 383.72727121181254 314.90813996028146 383.72727121181254L314.90813996028146 383.72727121181254Q309.33113887957984 383.72727121181254 306.0702693952351 381.6244675256463Q302.7789244951489 379.5521392552216 301.01135038213954 376.10841727642776Q299.2437762691303 372.6951707133753 298.7256942015241 368.36766167807673Q298.17713671817637 364.0096772270366 298.17713671817637 359.4993156972888L298.17713671817637 359.4993156972888L298.17713671817637 317.29086489525685Q298.17713671817637 314.51760206277675 297.96380880798563 311.7748146460383Q297.7504808977949 309.06250264504126 296.77526759406555 306.89874812739197Q295.83052970607787 304.7654690254842 293.9410539301025 303.42455073285646Q292.08205356986855 302.0836324402287 288.7602332540407 302.0836324402287L288.7602332540407 302.0836324402287Q284.4631996344838 302.0836324402287 281.7813630492283 304.9178461041919Q279.0995264639728 307.75205976815505 277.5452802611543 312.7500279497675Q275.9910340583358 317.71752071563844 275.41200115924653 324.5440138417432Q274.83296826015726 331.34003155210644 274.83296826015726 339.14173798194054L274.83296826015726 339.14173798194054L274.83296826015726 359.4993156972888Q274.83296826015726 364.0096772270366 274.3453616082927 368.36766167807673Q273.85775495642804 372.6951707133753 272.1511316749019 376.10841727642776Q270.4445083933756 379.5521392552216 267.1226880775479 381.6244675256463Q263.80086776172004 383.72727121181254 258.10196501805217 383.72727121181254L258.10196501805217 383.72727121181254Q252.52496393735052 383.72727121181254 249.32504528448888 381.6244675256463Q246.12512663162727 379.5521392552216 244.4489787658426 376.10841727642776Q242.8033063157995 372.6951707133753 242.31569966393488 368.36766167807673Q241.8280930120702 364.0096772270366 241.8280930120702 359.4993156972888L241.8280930120702 359.4993156972888L241.8280930120702 257.95523044647985Q241.8280930120702 253.44486891673202 242.31569966393488 249.11735988143343Q242.8033063157995 244.7593754303933 244.4489787658426 241.34612886734092Q246.12512663162727 237.90240688854698 249.32504528448888 235.8300786181223Q252.52496393735052 233.7272749319561 258.10196501805217 233.7272749319561L258.10196501805217 233.7272749319561Q263.80086776172004 233.7272749319561 267.1226880775479 235.8300786181223Q270.4445083933756 237.90240688854698 272.1511316749019 241.34612886734092Q273.85775495642804 244.7593754303933 274.3453616082927 249.11735988143343Q274.83296826015726 253.44486891673202 274.83296826015726 257.95523044647985L274.83296826015726 257.95523044647985L274.83296826015726 294.5866801678101Q275.77770614814506 291.4781877621731 277.60623109263736 288.2782691093114Q279.4347560371298 285.0478750407083 282.329920532576 282.48794011841903Q285.22508502802225 279.89752978038814 289.12593824293924 278.25185733034505Q293.02679145785623 276.5757094645603 298.17713671817637 276.5757094645603L298.17713671817637 276.5757094645603Q304.05889195629345 276.5757094645603 310.03207344163525 278.5566114877604Q315.9747795112354 280.5375135109605 320.63751811969087 285.0478750407083Q325.30025672814645 289.5582365704561 328.2258966393342 296.90281176416704Q331.18201196626353 304.2169115421365 331.18201196626353 314.94425788315834L331.18201196626353 314.94425788315834Z " fill="#fff748" transform="matrix(1.043071456001536,0,0,1.043071456001536,0,-22.024620917147004)"/><path d="M558.8989923173342 383.72727467971913L558.8989923173342 383.72727467971913Q546.747477165819 383.72727467971913 541.626265044607 380.27272922517375Q536.5050529233948 376.81818377062825 536.5050529233948 370.0909110433555L536.5050529233948 370.0909110433555Q536.5050529233948 366.78788074032525 537.4141438324857 364.545456497901Q538.3232347415767 362.33333528577975 539.9292953476372 360.9393958918404Q541.5353559536978 359.545456497901 543.595962014304 358.9696989221434Q545.686871105213 358.3939413463859 548.0202044385463 358.3939413463859L548.0202044385463 358.3939413463859Q549.626265044607 358.3939413463859 550.9899014082432 358.484850437295Q552.3838408021827 358.606062558507 553.3535377718797 358.606062558507L553.3535377718797 358.606062558507Q555.3838408021827 358.606062558507 557.2323256506675 356.1818201342646Q559.1111135294555 353.78788074032525 560.8686892870312 350.1818201342646Q562.626265044607 346.545456497901 564.4141438324857 342.3939413463859Q566.2323256506675 338.24242619487063 568.0505074688493 334.72727467971913L568.0505074688493 334.72727467971913L566.3535377718797 330.4545474069919Q563.2626286809706 322.6969716494161 559.8383862567282 314.1212140736585Q556.4444468627887 305.545456497901 553.0808104991524 296.75757771002225Q549.717174135516 287.9696989221434 546.4747498930917 279.21212316456763Q543.2323256506675 270.4848504372949 540.565658984001 262.27272922517375L540.565658984001 262.27272922517375Q539.3838408021827 258.8787898312343 538.595962014304 255.57575952820403Q537.8080832264251 252.27272922517372 537.8080832264251 249.0606080130525L537.8080832264251 249.0606080130525Q537.8080832264251 246.00000195244644 539.0808104991524 243.33333528577978Q540.3535377718797 240.66666861911312 542.595962014304 238.72727467971916Q544.8383862567282 236.81818377062825 547.747477165819 235.69697164941616Q550.686871105213 234.57575952820403 553.9899014082432 234.57575952820403L553.9899014082432 234.57575952820403Q556.9595983779402 234.57575952820403 559.4747498930917 235.87878983123434Q561.9899014082432 237.1515171039616 563.9595983779402 239.39394134638584Q565.9292953476372 241.60606255850703 567.4141438324857 244.4848504372949Q568.8989923173342 247.36363831608278 569.9595983779402 250.57575952820403L569.9595983779402 250.57575952820403L584.2323256506675 295.515153467598L597.8686892870312 250.57575952820403Q598.8383862567282 247.57575952820403 600.3232347415767 244.60606255850703Q601.8080832264251 241.60606255850703 603.8383862567282 239.33333528577975Q605.8686892870312 237.03030498274947 608.4141438324857 235.60606255850703Q610.9899014082432 234.1515171039616 614.0808104991524 234.1515171039616L614.0808104991524 234.1515171039616Q617.1717195900615 234.1515171039616 619.9899014082432 235.33333528577978Q622.8080832264251 236.51515346759794 624.8989923173342 238.575759528204Q626.9595983779402 240.66666861911312 628.2020226203645 243.54545649790097Q629.4141438324857 246.42424437668888 629.4141438324857 249.72727467971916L629.4141438324857 249.72727467971916Q629.4141438324857 252.90909286153735 628.626265044607 256.0606080130525Q627.8080832264251 259.1818201342646 626.65656807491 262.27272922517375L626.65656807491 262.27272922517375L601.0808104991524 330.0303049827495Q598.8383862567282 335.78788074032525 596.2323256506675 342.0303049827495Q593.626265044607 348.27272922517375 590.5353559536978 354.21212316456763Q587.4444468627887 360.1818201342646 583.9292953476372 365.515153467598Q580.4141438324857 370.84848680093125 576.4747498930917 374.87878983123426Q572.5353559536978 378.9393958918404 568.1111135294555 381.33333528577975Q563.686871105213 383.72727467971913 558.8989923173342 383.72727467971913ZM640.2929317112737 301.0606080130525L640.2929317112737 274.6363655888101Q640.2929317112737 264.84848680093125 642.9292953476372 258.0303049827495Q645.595962014304 251.21212316456766 649.8080832264252 246.6363655888101Q654.0202044385462 242.03030498274947 659.2020226203645 239.48485043729494Q664.3535377718797 236.93939589184038 669.3535377718797 235.66666861911312Q674.3838408021827 234.3636383160828 678.686871105213 234.0606080130525Q682.9899014082432 233.72727467971916 685.4444468627887 233.72727467971916L685.4444468627887 233.72727467971916Q687.8989923173342 233.72727467971916 692.1717195900615 234.0606080130525Q696.4141438324857 234.3636383160828 701.2626286809705 235.66666861911312Q706.1111135294555 236.93939589184038 711.0808104991524 239.48485043729494Q716.0202044385462 242.03030498274947 720.0202044385462 246.6363655888101Q724.0202044385462 251.21212316456766 726.565658984001 258.0303049827495Q729.1414165597585 264.84848680093125 729.1414165597585 274.6363655888101L729.1414165597585 274.6363655888101L729.1414165597585 301.0606080130525Q729.1414165597585 310.87878983123426 726.565658984001 317.6969716494161Q724.0202044385462 324.515153467598 720.0202044385462 329.0909110433555Q716.0202044385462 333.6666686191131 711.0808104991524 336.21212316456763Q706.1111135294555 338.78788074032525 701.2626286809705 340.0606080130525Q696.4141438324857 341.33333528577975 692.1717195900615 341.6666686191131Q687.8989923173342 341.9696989221434 685.4444468627887 341.9696989221434L685.4444468627887 341.9696989221434Q682.9899014082432 341.9696989221434 678.686871105213 341.6666686191131Q674.3838408021827 341.33333528577975 669.3535377718797 340.0606080130525Q664.3535377718797 338.78788074032525 659.2020226203645 336.21212316456763Q654.0202044385462 333.6666686191131 649.8080832264252 329.0909110433555Q645.595962014304 324.515153467598 642.9292953476372 317.6969716494161Q640.2929317112737 310.87878983123426 640.2929317112737 301.0606080130525L640.2929317112737 301.0606080130525ZM673.0808104991524 269.9696989221434L673.0808104991524 308.515153467598Q673.2020226203645 311.606062558507 674.595962014304 313.9696989221434L674.595962014304 313.9696989221434Q675.747477165819 316.0909110433555 678.2626286809705 317.72727467971913Q680.747477165819 319.3939413463859 685.4444468627887 319.3939413463859L685.4444468627887 319.3939413463859Q689.9292953476372 319.3939413463859 692.3232347415767 317.72727467971913Q694.717174135516 316.0909110433555 695.8989923173342 313.9696989221434L695.8989923173342 313.9696989221434Q697.1717195900615 311.606062558507 697.3838408021827 308.515153467598L697.3838408021827 308.515153467598L697.3838408021827 269.9696989221434Q697.1717195900615 266.75757771002225 695.8989923173342 264.0909110433555L695.8989923173342 264.0909110433555Q694.717174135516 261.9696989221434 692.3232347415767 260.0909110433555Q689.9292953476372 258.2424261948707 685.4444468627887 258.2424261948707L685.4444468627887 258.2424261948707Q680.747477165819 258.2424261948707 678.2626286809705 260.0909110433555Q675.747477165819 261.9696989221434 674.595962014304 264.0909110433555L674.595962014304 264.0909110433555Q673.2020226203645 266.75757771002225 673.0808104991524 269.9696989221434L673.0808104991524 269.9696989221434ZM750.0202044385462 303.1818201342646L750.0202044385462 258.8787898312343Q750.0202044385462 254.30303225547675 750.535355953698 249.93939589184038Q751.0808104991524 245.545456497901 752.8383862567282 242.1515171039616Q754.595962014304 238.72727467971916 757.8383862567282 236.6666686191131Q761.0808104991524 234.57575952820403 766.626265044607 234.57575952820403L766.626265044607 234.57575952820403Q772.0505074688494 234.57575952820403 775.2626286809705 236.6666686191131Q778.4444468627887 238.72727467971916 780.1717195900615 242.1515171039616Q781.8686892870312 245.545456497901 782.3535377718797 249.93939589184038Q782.8080832264252 254.30303225547675 782.8080832264252 258.8787898312343L782.8080832264252 258.8787898312343L782.8080832264252 300.4242443766889Q782.8080832264252 303.515153467598 783.0808104991522 306.33333528577975Q783.3535377718797 309.1515171039616 784.3232347415767 311.33333528577975Q785.2626286809705 313.515153467598 787.1414165597585 314.84848680093125Q788.9899014082432 316.1818201342646 792.2020226203645 316.1818201342646L792.2020226203645 316.1818201342646Q796.4444468627887 316.1818201342646 799.1717195900615 313.30303225547675Q801.8989923173342 310.4242443766889 803.4444468627887 305.4242443766889Q804.9899014082432 300.4242443766889 805.5050529233947 293.6666686191131Q806.0505074688494 286.9090928615374 806.0505074688494 279.1212140736585L806.0505074688494 279.1212140736585L806.0505074688494 258.8787898312343Q806.0505074688494 254.30303225547675 806.565658984001 249.93939589184038Q807.1111135294555 245.545456497901 808.8686892870312 242.1515171039616Q810.626265044607 238.72727467971916 813.8686892870312 236.6666686191131Q817.1111135294555 234.57575952820403 822.65656807491 234.57575952820403L822.65656807491 234.57575952820403Q828.1111135294555 234.57575952820403 831.2929317112737 236.6666686191131Q834.5050529233947 238.72727467971916 836.2020226203645 242.1515171039616Q837.8989923173342 245.545456497901 838.3838408021827 249.93939589184038Q838.8686892870312 254.30303225547675 838.8686892870312 258.8787898312343L838.8686892870312 258.8787898312343L838.8686892870312 317.0303049827495Q838.8686892870312 321.6363655888101 838.535355953698 325.9393958918404Q838.2323256506675 330.24242619487063 836.626265044607 333.606062558507Q835.0202044385462 336.9696989221434 831.777780196122 339.0303049827495Q828.5353559536977 341.1212140736585 822.65656807491 341.1212140736585L822.65656807491 341.1212140736585Q816.8080832264252 341.1212140736585 813.5050529233947 339.1515171039616Q810.2020226203645 337.1818201342646 808.5353559536977 334.4242443766889Q806.8989923173342 331.6363655888101 806.4747498930917 328.545456497901Q806.0505074688494 325.4545474069919 806.0505074688494 323.21212316456763L806.0505074688494 323.21212316456763Q805.2020226203645 326.30303225547675 803.3838408021827 329.515153467598Q801.565658984001 332.6969716494161 798.747477165819 335.27272922517375Q795.9292953476372 337.81818377062825 791.9899014082432 339.4848504372949Q788.0505074688492 341.1212140736585 782.8080832264252 341.1212140736585L782.8080832264252 341.1212140736585Q776.9595983779402 341.1212140736585 771.1111135294555 339.21212316456763Q765.2323256506675 337.27272922517363 760.565658984001 332.81818377062825Q755.8686892870312 328.33333528577975 752.9292953476372 321.0909110433555Q750.0202044385462 313.84848680093125 750.0202044385462 303.1818201342646L750.0202044385462 303.1818201342646Z " fill="#3c1a5b" transform="matrix(1.043071456001536,0,0,1.043071456001536,0,-22.024620917147004)"/></g></svg>